<svg width="121" height="120" viewBox="0 0 121 120" fill="none" xmlns="http://www.w3.org/2000/svg">
<path fill-rule="evenodd" clip-rule="evenodd" d="M98.2345 110.4C96.2807 110.399 93.1078 107.213 90.426 104.428C85.6375 99.456 85.5049 99.3705 83.0714 99.685C81.7084 99.8613 79.1442 100.95 77.3732 102.104C72.4201 105.333 71.4211 105.706 68.9222 105.254C65.5363 104.641 63.6528 103.528 57.299 98.3805C50.0054 92.4711 46.8627 90.4086 41.9202 88.2861C37.575 86.4193 32.0302 81.2764 29.0108 76.311C27.0004 73.0046 23.3913 61.2786 21.9391 53.3352C20.5661 45.8226 20.5523 34.0172 21.9095 27.2026C23.5296 19.0689 28.1628 7.66943 30.6604 5.67177C32.7639 3.98918 35.491 10.4166 35.491 17.0555C35.491 19.5966 35.6815 20.0353 36.9117 20.3328C37.0843 20.4718 37.2522 20.6055 37.4156 20.7356C39.5869 22.4642 40.9484 23.5481 41.4399 27.7061C41.9605 29.6334 42.4854 31.3051 42.6048 31.4209C42.7249 31.5366 43.776 30.3363 44.9409 28.7537C50.7359 20.8812 60.9861 12.4561 70.1456 8.03782C78.4834 4.01523 81.0666 5.10403 77.0451 10.9468L75.227 13.5879L76.7955 15.794C78.2892 17.8941 78.3508 18.32 78.0723 24.665C77.9114 28.3307 77.5788 31.7856 77.333 32.3418C76.9985 33.0986 77.2538 33.4046 78.3426 33.5536C80.8704 33.9002 81.5789 36.3844 80.4681 41.002C79.9425 43.1863 78.8015 46.3255 77.9327 47.9778C77.0646 49.6295 76.3535 51.2957 76.3535 51.6792C76.3535 52.0628 77.2022 53.3085 78.2395 54.447C81.5972 58.1327 80.4951 60.46 73.8389 63.7391L70.3813 65.4429L72.5816 65.7762C73.7918 65.9592 76.2819 66.2706 78.1157 66.4675C84.4739 67.1504 87.1413 69.3462 86.1656 73.0937C85.7959 74.5115 87.0312 76.4698 88.2948 76.4698C89.3378 76.4698 92.6986 79.6217 92.6986 80.6002C92.6986 81.1467 91.567 82.5906 90.184 83.8091C88.8009 85.0276 87.6693 86.306 87.6693 86.6508C87.6693 86.9949 88.9424 88.7145 90.4983 90.4716C92.0542 92.2281 93.3272 94.1113 93.3272 94.6566C93.3272 95.2013 92.62 96.2877 91.7556 97.0705C90.0544 98.6107 89.7181 100.344 90.9685 101.125C91.4004 101.394 93.3021 102.16 95.195 102.827C97.3575 103.588 99.4239 105.855 100.037 107.846C100.391 108.696 99.1888 110.4 98.2345 110.4ZM51.342 31.0551C44.1854 34.4694 40.24 45.4871 38.2679 67.5651C38.0221 70.3128 38.2271 72.9255 38.8431 72.9388C39.76 72.9586 39.48 72.5995 40.6731 69.7415C45.8011 57.4513 49.6887 52.0897 52.6716 53.193C53.2274 53.3984 53.6599 54.263 53.6599 55.1689C53.6599 57.8694 51.4514 61.2721 42.6012 72.2117C41.6576 73.3781 43.0759 72.2875 45.7533 69.7881C55.1819 60.9862 61.8324 51.7382 61.8324 47.4315C61.8324 44.9776 59.7057 43.1283 56.8836 43.1283C52.3397 43.1283 46.5121 51.3487 41.42 64.9409C38.6275 72.3953 38.6313 71.1884 41.43 61.8084C45.4786 48.2392 52.048 37.165 57.3991 34.8899C60.3727 33.6254 60.5688 32.7819 58.2899 31.0545C58.2469 31.0301 58.2046 31.0061 58.1629 30.9823C56.9222 30.2753 56.1809 29.8529 51.342 31.0551ZM26.7302 32.9823C24.4701 36.3069 24.5003 49.7998 26.7867 58.3043C27.824 62.1645 31.242 70.8871 32.0203 71.6626C32.6684 72.3085 35.4534 39.2892 34.9404 37.0395C34.7084 36.0209 33.7189 34.362 32.7407 33.3532C30.5354 31.078 28.1258 30.9289 26.7302 32.9823ZM61.0884 56.9313C63.6367 54.1574 65.6123 52.0069 66.4398 51.5177C68.3055 50.4147 69.8771 51.0206 70.3614 51.8909C70.8456 52.7613 71.2515 53.7444 70.6487 55.5052C69.5711 58.6522 64.9021 63.2989 59.1047 66.9937C53.5505 70.534 42.3441 76.1501 42.3441 75.3933C42.3441 75.137 45.7564 71.9306 49.9269 68.2679C53.7917 64.8737 57.891 60.4116 61.0884 56.9313ZM61.5181 73.0479C56.3128 74.6899 46.0683 78.8264 45.1731 79.648C44.7695 80.0182 44.9939 80.0976 45.8017 79.8692C51.9782 78.1229 71.8972 76.8499 76.6599 77.8969C78.1177 78.2174 78.9764 78.0284 80.1175 77.1365C80.1175 77.1365 80.542 76.3874 80.5643 75.8627C80.5899 75.2605 80.1099 74.3827 80.1099 74.3827C77.0792 71.2677 69.001 70.6879 61.5181 73.0479ZM46.519 81.6263C48.8909 81.4112 51.3967 81.1349 52.0883 81.0119C54.7468 80.5393 71.7048 81.233 74.198 81.9165C78.9796 83.2271 81.3383 86.8104 79.0381 89.2698C77.4212 90.9984 72.9426 90.5579 63.9962 87.7919C60.213 86.6219 54.0057 85.0478 50.2023 84.2935C46.3989 83.5391 43.0444 82.7181 42.7471 82.4691C42.4503 82.2207 44.1477 81.8408 46.519 81.6263ZM51.1453 86.9873C51.1453 87.1285 52.4818 87.9992 54.1157 88.922C55.7489 89.8448 58.9959 92.329 61.3307 94.4424C65.1567 97.9051 67.6902 99.4774 69.446 99.4774C70.6782 99.4774 73.1482 96.4643 73.1482 94.9604C73.1482 94.1121 73.0696 93.4184 72.9734 93.4184C72.8779 93.4184 68.7049 92.0957 63.7008 90.4791C54.1716 87.4005 51.1453 86.5589 51.1453 86.9873Z" fill="#B77DFF"/>
</svg>
