<svg width="28" height="28" viewBox="0 0 28 28" fill="none" xmlns="http://www.w3.org/2000/svg">
<path d="M12.7762 20.8843C10.5097 20.8843 8.59162 20.0994 7.02177 18.5296C5.45192 16.9597 4.66699 15.0416 4.66699 12.7752C4.66699 10.5088 5.45192 8.59064 7.02177 7.02079C8.59162 5.45094 10.5097 4.66602 12.7762 4.66602C15.0426 4.66602 16.9607 5.45094 18.5305 7.02079C20.1004 8.59064 20.8853 10.5088 20.8853 12.7752C20.8853 13.6901 20.7398 14.553 20.4487 15.3639C20.1576 16.1748 19.7625 16.8921 19.2635 17.5159L22.9906 21.243C23.2193 21.4717 23.3337 21.7628 23.3337 22.1163C23.3337 22.4698 23.2193 22.7609 22.9906 22.9896C22.7619 23.2183 22.4708 23.3327 22.1173 23.3327C21.7638 23.3327 21.4727 23.2183 21.244 22.9896L17.5169 19.2625C16.8931 19.7615 16.1758 20.1566 15.3649 20.4477C14.5539 20.7388 13.691 20.8843 12.7762 20.8843ZM12.7762 18.3892C14.3356 18.3892 15.6611 17.8434 16.7528 16.7518C17.8444 15.6602 18.3902 14.3346 18.3902 12.7752C18.3902 11.2157 17.8444 9.89019 16.7528 8.79857C15.6611 7.70695 14.3356 7.16114 12.7762 7.16114C11.2167 7.16114 9.89117 7.70695 8.79955 8.79857C7.70793 9.89019 7.16212 11.2157 7.16212 12.7752C7.16212 14.3346 7.70793 15.6602 8.79955 16.7518C9.89117 17.8434 11.2167 18.3892 12.7762 18.3892Z" fill="#1E1E1E"/>
</svg>
