<svg width="12" height="13" viewBox="0 0 12 13" fill="none" xmlns="http://www.w3.org/2000/svg">
<path fill-rule="evenodd" clip-rule="evenodd" d="M6 12.5C9.31371 12.5 12 9.81371 12 6.5C12 3.18629 9.31371 0.5 6 0.5C2.68629 0.5 0 3.18629 0 6.5C0 9.81371 2.68629 12.5 6 12.5ZM6.66 7.6472L6.8256 3.5H5.4L5.5944 7.6472H6.66ZM6.1272 8.396C5.796 8.396 5.5584 8.6336 5.5584 8.9648C5.5584 9.296 5.796 9.5336 6.1272 9.5336C6.4584 9.5336 6.696 9.296 6.696 8.9648C6.696 8.6336 6.4584 8.396 6.1272 8.396Z" fill="#B77DFF"/>
</svg>
